<?xml version="1.0" standalone="no"?>
<!DOCTYPE svg PUBLIC "-//W3C//DTD SVG 20010904//EN"
 "http://www.w3.org/TR/2001/REC-SVG-20010904/DTD/svg10.dtd">
<svg version="1.0" xmlns="http://www.w3.org/2000/svg"
 width="500.000000pt" height="450.000000pt" viewBox="0 0 500.000000 450.000000"
 preserveAspectRatio="xMidYMid meet">

<g transform="translate(0.000000,450.000000) scale(0.100000,-0.100000)"
fill="#000000" stroke="none">
<path d="M0 4098 c1 -319 3 -400 13 -387 7 8 32 20 57 25 35 7 44 13 42 28 -3
14 3 17 25 16 15 -1 33 -2 40 -1 17 2 174 288 279 511 52 110 94 202 94 205 0
3 -124 5 -275 5 l-275 0 0 -402z"/>
<path d="M3535 4483 c12 -29 35 -216 29 -235 -3 -10 -11 -15 -19 -11 -8 3 -13
8 -11 12 2 3 -8 7 -22 8 -25 1 -26 0 -7 -13 10 -8 14 -14 9 -14 -5 0 -21 8
-34 17 -44 32 -363 143 -520 182 -304 77 -675 78 -950 5 -143 -38 -319 -94
-377 -120 -204 -91 -350 -172 -464 -261 -117 -90 -259 -217 -323 -289 -74 -83
-226 -285 -226 -300 0 -6 -9 -19 -20 -29 -11 -10 -20 -22 -20 -26 0 -4 -25
-54 -56 -111 -84 -156 -157 -345 -189 -488 -9 -41 -22 -100 -30 -130 -32 -130
-44 -342 -36 -655 2 -82 0 -165 -4 -184 -4 -22 -3 -31 4 -26 6 3 11 1 11 -4 0
-6 -4 -11 -10 -11 -5 0 -10 -5 -10 -11 0 -5 4 -8 9 -5 8 5 23 -104 15 -113 -2
-2 -7 16 -11 40 l-7 44 -8 -35 c-5 -19 -10 -48 -12 -65 -2 -16 -8 -31 -15 -33
-6 -2 -11 -12 -11 -23 0 -11 -7 -19 -17 -19 -13 0 -19 -9 -20 -34 -2 -19 -8
-47 -15 -63 -6 -15 -12 -31 -12 -35 -2 -17 -16 -19 -16 -2 -1 35 -17 -7 -26
-66 -7 -49 -8 -52 -14 -25 -6 29 -7 28 -14 -15 -8 -45 -25 -87 -26 -62 0 19
-17 14 -23 -8 -3 -13 -10 -18 -21 -14 -15 6 -16 -52 -16 -625 l0 -631 139 0
138 0 9 93 c7 83 9 88 14 47 l7 -45 1 43 c1 23 7 42 12 42 6 0 10 18 10 40 0
22 4 40 8 40 13 0 42 125 42 184 0 49 2 56 20 56 18 0 20 7 20 74 0 82 -8 116
-21 95 -13 -22 -16 -8 -21 111 -2 63 -3 98 -1 78 7 -67 23 -40 24 40 0 42 2
87 3 99 4 35 16 40 16 8 0 -16 3 -26 6 -22 3 3 8 56 10 118 3 106 11 142 22
110 3 -10 8 -7 18 10 8 15 13 18 14 9 0 -13 1 -13 10 0 7 11 9 5 5 -20 -4 -27
-3 -30 4 -15 10 21 13 15 15 -29 1 -11 7 -20 14 -22 7 -1 8 0 2 3 -12 6 -13
23 -1 23 5 0 19 -19 31 -42 21 -41 121 -190 160 -238 136 -169 300 -330 430
-423 95 -67 218 -147 228 -147 4 0 23 -10 42 -23 57 -37 217 -108 340 -149
157 -53 376 -96 545 -108 184 -13 512 -13 517 0 3 10 36 18 80 19 15 1 34 8
43 17 11 12 25 14 50 10 19 -4 35 -3 35 1 0 8 127 55 143 54 4 -1 21 6 38 15
17 8 37 13 45 10 9 -3 12 -1 9 4 -3 6 2 11 12 12 33 2 38 3 51 11 7 5 12 4 12
-2 0 -6 7 -11 16 -11 13 0 14 3 5 13 -8 11 -5 16 14 25 21 10 23 9 18 -5 -4
-11 -2 -14 5 -9 8 4 10 2 6 -8 -5 -12 4 -14 46 -12 28 1 52 0 55 -2 3 -4 207
-5 523 -3 103 1 122 3 122 17 0 8 5 12 10 9 6 -3 10 -1 10 4 0 6 14 11 30 11
23 0 30 4 30 20 0 16 7 20 31 20 17 0 28 4 24 10 -3 6 5 10 19 10 27 0 46 24
46 58 0 21 39 75 40 55 0 -22 40 -15 40 7 0 13 7 20 20 20 11 0 20 7 20 15 0
16 46 65 60 65 6 0 10 4 10 9 0 5 13 11 29 14 18 4 32 14 36 28 4 12 16 32 26
43 11 11 19 26 19 33 0 7 6 13 14 13 8 0 21 9 29 21 10 13 16 16 19 8 2 -7 10
3 17 22 7 19 19 46 27 61 8 14 14 53 14 87 l0 60 -54 0 c-49 -1 -55 -4 -60
-25 -4 -13 -11 -24 -16 -24 -6 0 -10 -12 -11 -27 0 -16 -3 -22 -6 -15 -8 20
-33 14 -33 -8 0 -20 -11 -26 -23 -13 -4 3 -2 12 4 20 17 20 -14 17 -61 -7 -29
-15 -40 -27 -40 -44 0 -18 -9 -26 -40 -36 -24 -8 -40 -20 -40 -29 -1 -20 -43
-52 -72 -54 -13 -1 -25 -12 -32 -29 -6 -16 -16 -28 -23 -28 -7 0 -10 -6 -7
-13 3 -8 -7 -19 -23 -27 -15 -8 -38 -23 -50 -34 -13 -11 -26 -16 -29 -13 -4 4
-13 -1 -20 -11 -10 -14 -15 -15 -25 -4 -24 23 -39 14 -39 -23 l0 -35 -49 0
c-49 0 -97 -18 -112 -41 -4 -7 -28 -12 -56 -12 -26 0 -42 -2 -35 -4 6 -3 12
-13 12 -24 0 -17 -8 -19 -79 -19 -61 0 -80 3 -85 15 -3 8 0 15 6 15 6 0 9 3 6
6 -4 3 -16 1 -27 -6 -27 -14 -27 1 0 18 11 7 29 10 39 7 20 -6 37 10 20 20 -8
5 50 55 64 55 2 0 20 15 41 34 21 19 44 32 52 29 8 -3 13 0 11 8 -2 8 4 13 13
11 9 -1 19 5 23 13 3 9 2 13 -4 10 -26 -16 -4 5 58 54 66 54 203 212 294 340
26 36 53 65 60 63 7 -2 10 0 6 3 -9 9 15 56 36 74 21 18 20 3 -1 -23 -14 -16
-14 -18 -2 -8 9 6 19 9 22 6 3 -3 4 8 2 25 -2 18 2 36 11 45 7 8 14 20 14 26
0 7 8 29 19 49 63 123 116 252 154 371 59 189 87 331 98 505 28 413 -33 741
-210 1128 -17 37 -31 72 -31 77 0 6 -4 10 -8 10 -5 0 -22 24 -37 53 -83 153
-236 363 -347 477 -70 71 -94 107 -73 107 8 0 11 -5 8 -10 -3 -6 -1 -7 5 -3 6
4 9 13 5 21 -3 9 1 15 8 15 10 1 9 5 -4 14 -21 16 -13 46 14 46 10 0 19 5 19
12 0 6 7 19 15 28 14 16 13 20 -18 47 -28 24 -35 39 -40 81 -3 28 -3 67 0 87
5 32 9 36 44 41 23 4 39 12 39 20 0 8 6 14 13 14 8 0 8 3 -2 9 -17 11 83 21
171 18 55 -2 72 -10 46 -20 -7 -3 3 -6 22 -6 23 -1 30 -4 22 -10 -10 -6 -8
-10 10 -15 l23 -7 -22 -11 c-26 -13 -30 -43 -8 -52 18 -7 20 -69 3 -84 -7 -5
-22 -12 -33 -15 -18 -4 -18 -5 3 -6 12 0 25 -8 28 -16 4 -9 19 -15 38 -15 34
0 86 -20 86 -32 0 -5 4 -8 10 -8 5 0 7 6 4 13 -3 10 5 12 31 9 25 -3 35 -9 35
-22 0 -10 9 -20 20 -23 12 -3 20 -14 20 -25 0 -24 16 -38 23 -20 3 7 6 3 6 -8
1 -19 9 -22 83 -29 46 -4 85 -10 88 -15 3 -4 22 -11 43 -15 34 -7 37 -5 37 15
0 22 3 23 60 17 l60 -7 0 265 c0 254 -1 265 -19 265 -11 0 -22 -6 -25 -12 -5
-10 -7 -10 -12 0 -4 9 -156 12 -711 12 -668 0 -705 -1 -698 -17z m-645 -82
c135 -24 285 -67 390 -111 103 -42 298 -141 312 -157 16 -20 -6 -16 -44 7 -18
11 -40 20 -48 19 -10 0 -11 -2 -2 -6 6 -2 9 -10 6 -15 -4 -7 -2 -8 4 -4 7 4
12 2 12 -4 0 -6 5 -8 10 -5 6 3 10 1 10 -4 0 -6 6 -11 14 -11 8 0 16 -3 18 -7
11 -25 143 -102 176 -103 22 0 3 19 -38 40 -40 20 -117 87 -89 77 38 -13 164
-104 269 -194 227 -195 407 -426 546 -703 100 -198 171 -438 199 -664 18 -150
21 -437 5 -581 -20 -180 -88 -423 -170 -605 -48 -108 -165 -312 -173 -304 -3
4 -2 15 4 26 13 23 2 39 -12 18 -5 -8 -7 -26 -5 -40 5 -26 -13 -58 -92 -163
-24 -31 -48 -55 -53 -51 -5 3 -8 2 -7 -3 5 -18 -14 -52 -32 -58 -10 -3 -21
-13 -25 -23 -5 -14 -7 -14 -16 -2 -9 12 -10 12 -5 -3 7 -23 -48 -79 -70 -70
-7 3 -14 0 -14 -7 0 -6 6 -8 13 -5 25 13 -121 -120 -193 -175 -92 -70 -117
-83 -138 -75 -13 5 -14 4 -5 -6 10 -10 9 -15 -5 -25 -9 -8 -25 -14 -34 -14
-10 0 -18 -4 -18 -9 0 -5 -37 -28 -82 -52 -103 -54 -102 -54 -93 -39 6 9 3 9
-14 1 -11 -7 -21 -15 -21 -20 0 -27 -354 -144 -500 -165 -19 -2 -71 -10 -115
-17 -44 -7 -165 -13 -270 -13 -302 0 -528 38 -766 128 -208 79 -475 229 -578
325 -24 23 -46 41 -50 41 -3 0 -48 39 -99 88 -74 70 -92 91 -87 107 6 16 5 17
-4 5 -9 -13 -17 -8 -53 30 -52 54 -178 220 -178 234 0 5 -9 19 -19 30 -81 88
-265 512 -299 691 -7 33 -22 110 -34 170 -19 93 -22 141 -22 310 0 218 22 397
70 584 43 165 159 437 247 575 117 186 159 240 314 406 88 95 273 241 403 318
273 163 504 248 796 292 182 27 584 23 754 -9z m1510 -41 c0 -5 -7 -7 -15 -4
-8 4 -15 8 -15 10 0 2 7 4 15 4 8 0 15 -4 15 -10z m-833 -146 c-3 -3 -12 -4
-19 -1 -8 3 -5 6 6 6 11 1 17 -2 13 -5z m1130 -3426 c-3 -7 -5 -2 -5 12 0 14
2 19 5 13 2 -7 2 -19 0 -25z m-1151 -504 c-19 -14 -19 -14 2 -14 13 0 22 6 22
15 0 8 8 15 18 14 11 0 12 -2 4 -6 -8 -3 -10 -9 -3 -16 7 -9 -2 -13 -30 -15
-21 -1 -39 1 -39 4 0 13 33 44 39 38 3 -3 -3 -12 -13 -20z m-56 -29 l-25 -15
26 6 c19 4 26 1 26 -10 0 -12 -6 -14 -21 -9 -12 4 -31 7 -43 8 -29 0 -29 1 5
19 35 20 65 20 32 1z m-34 -50 c17 -16 14 -18 -10 -9 -9 3 -16 10 -16 15 0 13
9 11 26 -6z m54 5 c13 -9 13 -10 0 -10 -8 0 -22 5 -30 10 -13 9 -13 10 0 10 8
0 22 -5 30 -10z"/>
<path d="M2300 4364 c-198 -24 -402 -70 -546 -123 -648 -238 -1137 -784 -1315
-1467 -38 -147 -56 -277 -65 -454 -6 -133 -3 -178 23 -374 7 -55 -10 -59 -21
-5 -5 25 -9 29 -20 20 -15 -12 -14 -61 2 -113 6 -18 13 -50 17 -70 3 -21 10
-38 15 -38 5 0 7 -6 4 -14 -3 -8 2 -27 11 -43 16 -27 16 -27 11 42 -3 39 -8
88 -11 110 -4 31 -3 34 4 15 8 -23 16 -52 49 -185 49 -193 196 -474 380 -727
44 -61 203 -230 262 -279 161 -135 309 -230 493 -318 183 -88 386 -149 612
-183 130 -19 454 -16 580 5 128 22 277 55 335 74 115 39 217 79 260 102 130
69 168 87 182 84 9 -2 19 1 23 6 3 7 0 8 -9 5 -9 -3 -16 -1 -16 5 0 6 4 11 10
11 13 0 80 43 172 112 81 60 104 72 73 38 -24 -26 -11 -26 15 0 11 11 15 20 9
20 -5 0 -7 5 -4 10 4 6 11 7 17 4 6 -4 8 -2 5 3 -8 13 19 37 32 29 5 -4 13 -1
17 5 4 8 3 9 -4 5 -7 -4 -12 -3 -12 2 0 11 27 25 50 26 8 1 16 11 16 24 1 21
105 135 126 138 4 1 14 2 21 3 8 1 8 4 -3 11 -12 7 -11 13 9 34 22 23 49 27
35 5 -3 -5 -10 -7 -15 -4 -5 4 -9 -3 -9 -14 0 -12 4 -21 10 -21 5 0 9 6 7 12
-1 7 3 12 9 11 13 -2 15 28 2 44 -6 7 7 32 39 74 127 165 285 503 336 719 83
345 88 613 20 950 -35 173 -82 309 -167 485 -111 226 -225 393 -375 548 -317
328 -723 539 -1196 623 -78 14 -435 26 -505 18z m530 -63 c63 -11 129 -22 145
-26 181 -42 494 -180 528 -233 5 -7 12 -10 16 -7 5 2 8 -3 7 -13 0 -10 7 -18
20 -20 30 -4 34 -27 31 -184 -1 -75 1 -131 5 -125 4 7 8 29 8 50 0 23 4 36 10
32 6 -3 11 4 11 17 l2 23 4 -23 c7 -35 23 -15 23 29 0 28 4 39 15 39 8 0 15 3
15 8 0 4 9 13 20 20 24 15 26 9 4 -12 -8 -9 -11 -16 -5 -16 5 0 16 9 24 20 13
18 15 19 21 5 3 -9 10 -13 16 -10 6 3 13 -1 16 -9 3 -9 10 -13 15 -11 21 14
216 -182 363 -366 100 -124 232 -369 284 -524 93 -283 115 -412 116 -700 0
-204 -6 -270 -49 -485 -12 -60 -87 -273 -132 -375 -66 -151 -248 -438 -272
-430 -8 3 -11 0 -8 -7 5 -15 -18 -40 -28 -30 -4 4 -5 2 -3 -5 4 -15 -17 -44
-84 -115 -35 -37 -62 -57 -69 -52 -8 4 -9 3 -5 -5 12 -19 -195 -197 -219 -187
-8 3 -12 0 -9 -7 8 -22 -275 -186 -401 -231 -27 -10 -63 -25 -80 -32 -214 -97
-684 -150 -965 -110 -149 22 -284 52 -323 71 -16 8 -38 15 -47 15 -44 0 -342
136 -433 197 -27 18 -51 33 -54 33 -10 0 -110 75 -192 144 -192 161 -411 420
-476 564 -8 18 -24 47 -36 63 -11 16 -21 45 -22 64 -1 19 -4 30 -7 24 -4 -6
-11 -4 -19 5 -7 8 -10 20 -6 25 3 6 -3 28 -15 50 -23 47 -27 74 -5 45 14 -18
14 -18 15 9 0 15 -5 27 -12 27 -6 0 -9 3 -5 6 8 8 -13 64 -25 64 -5 0 -6 -4
-3 -10 3 -5 2 -10 -3 -10 -5 0 -12 9 -15 20 -3 11 -1 18 3 15 5 -3 11 -1 15 5
3 5 -1 10 -9 10 -9 0 -16 8 -16 18 0 14 2 15 10 2 8 -12 10 -13 10 -1 0 8 7
23 17 33 9 11 11 18 5 18 -7 0 -12 9 -12 21 0 11 -4 18 -9 15 -20 -13 -26 36
-31 259 -1 11 4 21 10 23 5 2 10 17 10 33 0 16 5 29 10 29 6 0 10 14 10 30 0
17 -4 30 -10 30 -15 0 -64 -24 -72 -35 -4 -5 -8 9 -8 33 0 24 -5 42 -11 42 -6
0 -9 -7 -6 -15 4 -8 2 -17 -3 -20 -6 -4 -10 11 -10 34 0 24 -5 41 -12 41 -20
0 -2 285 28 445 45 241 108 409 236 630 208 360 509 642 878 822 63 31 124 61
134 66 58 28 257 88 338 102 178 29 224 33 448 34 179 1 248 -3 340 -18z
m1120 -3581 c0 -5 -4 -10 -10 -10 -5 0 -10 5 -10 10 0 6 5 10 10 10 6 0 10 -4
10 -10z"/>
<path d="M2233 3483 c-4 -16 -7 -73 -7 -128 0 -99 0 -101 53 -220 37 -82 55
-138 59 -177 5 -56 3 -61 -48 -144 -29 -48 -73 -105 -98 -128 -149 -136 -315
-317 -432 -471 -46 -60 -88 -114 -92 -120 -14 -17 -118 -186 -156 -255 -21
-36 -42 -74 -48 -85 -30 -52 -84 -169 -84 -181 0 -18 73 -64 129 -81 24 -7 76
-13 115 -13 95 0 134 -12 180 -57 43 -42 56 -69 56 -117 0 -40 38 -84 100
-117 39 -21 59 -24 145 -24 55 0 114 5 130 12 157 61 170 65 209 60 46 -6 65
-27 102 -107 66 -144 109 -220 126 -220 10 0 18 5 18 11 0 5 -43 97 -95 202
-52 106 -105 221 -119 257 -13 36 -44 117 -69 180 -58 148 -121 358 -146 485
-50 258 -44 532 14 645 114 220 123 263 80 375 -14 36 -36 95 -50 131 -41 107
-53 254 -21 254 17 0 146 -78 177 -106 35 -33 72 -30 116 9 71 62 96 77 128
77 38 0 94 -35 114 -72 14 -24 14 -32 -3 -80 -10 -29 -29 -71 -41 -93 -37 -67
-75 -172 -75 -209 0 -40 -8 -47 -58 -50 -20 -1 -43 -5 -50 -10 -26 -16 2 -26
74 -26 74 0 75 0 120 -42 78 -72 143 -180 170 -284 19 -73 18 -251 -2 -365 -8
-50 -31 -141 -49 -202 -34 -112 -35 -127 -10 -127 42 0 131 444 119 590 -17
190 -53 264 -207 428 -59 63 -59 63 -55 114 4 33 21 82 51 142 82 162 92 206
53 246 -57 60 -110 90 -159 90 -36 0 -106 -40 -146 -84 -14 -14 -31 -26 -38
-26 -13 0 -81 45 -93 62 -7 10 -156 78 -169 78 -6 0 -14 -12 -18 -27z m-37
-900 c-3 -21 -22 -76 -42 -123 -84 -198 -124 -303 -164 -440 -54 -182 -103
-399 -115 -512 -4 -39 -11 -58 -20 -58 -7 0 -15 3 -17 8 -1 4 -28 20 -58 37
-50 26 -66 29 -164 32 -126 4 -176 21 -176 58 0 69 220 438 389 654 130 166
336 380 365 381 5 0 6 -17 2 -37z m-18 -270 c10 -145 95 -510 157 -668 15 -38
42 -113 60 -166 18 -53 38 -106 45 -119 7 -12 16 -35 20 -49 7 -25 6 -26 -39
-28 -28 -1 -81 -17 -132 -39 -66 -29 -101 -37 -164 -41 -91 -5 -131 7 -183 55
-30 28 -32 34 -32 99 0 77 48 376 80 504 33 132 89 307 123 389 46 111 61 126
65 63z"/>
<path d="M3508 3345 c-11 -58 -10 -81 3 -68 5 5 9 32 7 59 l-3 49 -7 -40z"/>
<path d="M3471 3214 c-12 -52 -8 -136 7 -161 4 -6 8 17 10 52 1 35 6 84 11
109 6 33 5 46 -4 50 -8 3 -17 -15 -24 -50z"/>
<path d="M3441 3124 c0 -11 3 -14 6 -6 3 7 2 16 -1 19 -3 4 -6 -2 -5 -13z"/>
<path d="M3431 3064 c0 -11 3 -14 6 -6 3 7 2 16 -1 19 -3 4 -6 -2 -5 -13z"/>
<path d="M2847 1788 c-24 -24 -49 -53 -56 -65 -46 -89 64 -184 143 -122 l26
20 0 -149 c0 -174 -5 -213 -27 -205 -11 4 -14 2 -11 -8 3 -8 11 -13 17 -11 7
1 11 -15 11 -42 0 -24 3 -58 6 -75 5 -26 11 -31 34 -31 16 0 30 7 34 15 3 8
13 15 21 15 9 0 14 -4 11 -9 -7 -11 20 -22 38 -15 28 11 36 56 36 199 0 144
-4 180 -21 169 -5 -3 -9 10 -9 29 0 67 -12 127 -26 127 -11 0 -14 -20 -14 -82
0 -127 -12 -278 -21 -272 -5 3 -9 27 -9 54 0 30 -5 50 -12 53 -10 3 -10 7 0
19 10 13 9 18 -3 28 -11 9 -15 34 -15 98 0 65 -4 90 -16 103 -10 11 -14 27
-11 41 6 23 7 23 159 21 l152 -2 19 -40 c11 -23 23 -41 28 -41 5 0 9 -6 9 -13
0 -8 16 -12 50 -12 43 0 54 5 75 29 30 34 32 80 7 117 -41 62 -57 84 -67 91
-5 4 -123 8 -261 8 l-252 0 -45 -42z m520 -13 c2 -1 -4 -10 -11 -21 -13 -18
-28 -19 -216 -19 -188 0 -203 1 -216 19 -8 11 -14 23 -14 27 0 6 450 1 457 -6z
m72 -70 c19 -19 7 -59 -24 -75 -55 -29 -101 35 -58 82 19 21 57 18 82 -7z
m-528 -4 c23 -19 23 -21 9 -48 -19 -34 -54 -41 -81 -17 -56 51 13 113 72 65z"/>
<path d="M3810 1645 c11 -13 5 -15 -46 -16 -33 -1 -51 -3 -41 -6 9 -2 15 -9
12 -14 -4 -5 1 -9 10 -9 9 0 14 -4 11 -9 -3 -4 -33 -11 -66 -15 -37 -4 -58
-11 -54 -17 3 -6 -3 -13 -15 -16 -17 -4 -21 -13 -21 -44 0 -32 -3 -39 -20 -39
-14 0 -20 7 -20 21 0 12 -5 19 -12 17 -24 -8 -18 -33 11 -46 24 -11 33 -11 51
0 17 11 22 11 30 -2 7 -12 12 -12 22 -2 6 6 22 12 34 12 12 0 24 6 27 14 3 8
31 20 61 26 37 7 56 16 56 26 0 8 5 14 10 14 6 0 10 17 10 38 1 30 3 34 11 20
13 -24 36 -23 44 2 5 15 16 20 48 21 28 1 15 5 -38 11 -44 5 -81 13 -83 18 -2
6 -13 10 -24 10 -17 0 -18 -3 -8 -15z"/>
<path d="M3166 1599 c-3 -17 -6 -134 -6 -259 0 -186 3 -229 14 -233 21 -8 26
2 26 59 0 47 2 52 19 49 13 -2 22 4 27 18 5 15 9 0 11 -51 3 -53 8 -75 19 -79
8 -3 17 -3 20 -1 11 11 23 373 14 439 -15 125 -50 119 -50 -8 0 -56 -3 -73
-14 -73 -8 0 -17 -6 -20 -12 -3 -7 -3 -3 0 10 4 16 1 22 -10 22 -16 0 -18 15
-20 114 -1 40 -22 44 -30 5z m87 -181 c-8 -46 -13 -48 -13 -5 0 21 4 37 10 37
5 0 7 -14 3 -32z"/>
<path d="M3658 1623 c6 -2 18 -2 25 0 6 3 1 5 -13 5 -14 0 -19 -2 -12 -5z"/>
<path d="M3655 1600 c-19 -8 -19 -9 3 -9 12 -1 22 4 22 9 0 6 -1 10 -2 9 -2 0
-12 -4 -23 -9z"/>
<path d="M3920 1590 c0 -5 5 -10 10 -10 6 0 10 5 10 10 0 6 -4 10 -10 10 -5 0
-10 -4 -10 -10z"/>
<path d="M2932 1210 c0 -14 2 -19 5 -12 2 6 2 18 0 25 -3 6 -5 1 -5 -13z"/>
<path d="M2927 1033 c-4 -3 -7 -12 -7 -20 0 -10 43 -13 215 -13 175 0 215 3
215 14 0 9 -18 15 -52 20 -70 8 -363 8 -371 -1z"/>
<path d="M2973 953 c-104 -3 -113 -5 -113 -23 0 -19 8 -20 269 -20 260 0 302
5 275 30 -11 10 -279 18 -431 13z"/>
<path d="M3966 865 c4 -8 11 -15 16 -15 6 0 5 6 -2 15 -7 8 -14 15 -16 15 -2
0 -1 -7 2 -15z"/>
<path d="M4257 1075 c-4 -8 -2 -17 3 -20 6 -4 10 3 10 14 0 25 -6 27 -13 6z"/>
<path d="M4221 1039 c-23 -9 -23 -10 -5 -23 10 -8 25 -11 33 -8 9 4 11 7 4 9
-7 3 -9 11 -6 19 6 16 6 16 -26 3z"/>
<path d="M4179 983 c-1 -10 -1 -25 0 -33 2 -13 1 -13 -8 0 -5 8 -7 19 -4 25 3
5 0 4 -8 -3 -11 -10 -11 -15 2 -27 14 -14 18 -14 37 3 12 11 22 27 22 36 0 22
-40 21 -41 -1z"/>
<path d="M4091 814 c0 -11 3 -14 6 -6 3 7 2 16 -1 19 -3 4 -6 -2 -5 -13z"/>
<path d="M993 694 c0 -7 7 -16 14 -18 8 -3 11 -11 7 -18 -5 -8 -2 -9 9 -5 10
4 20 0 26 -11 6 -9 11 -13 11 -8 0 5 -15 24 -33 41 -19 18 -34 27 -34 19z"/>
<path d="M1095 620 c10 -11 20 -20 23 -20 3 0 -3 9 -13 20 -10 11 -20 20 -23
20 -3 0 3 -9 13 -20z"/>
<path d="M3765 550 c-4 -6 -11 -7 -17 -4 -7 4 -8 2 -4 -5 6 -9 11 -9 22 0 14
11 18 19 10 19 -3 0 -8 -5 -11 -10z"/>
<path d="M3720 520 c0 -5 5 -10 11 -10 5 0 7 5 4 10 -3 6 -8 10 -11 10 -2 0
-4 -4 -4 -10z"/>
<path d="M3625 459 c-16 -10 -25 -19 -20 -19 6 0 24 9 40 20 17 11 26 20 20
19 -5 0 -23 -9 -40 -20z"/>
<path d="M3513 373 c-7 -2 -13 -10 -13 -17 0 -7 -10 -18 -22 -24 -13 -6 -17
-11 -10 -11 6 -1 21 8 32 19 11 11 25 20 30 20 6 0 10 5 10 10 0 11 -7 12 -27
3z"/>
<path d="M3416 342 c-2 -4 4 -8 14 -8 10 0 16 4 14 8 -3 4 -9 8 -14 8 -5 0
-11 -4 -14 -8z"/>
<path d="M3326 268 c3 -4 -4 -8 -15 -8 -12 0 -21 -4 -21 -9 0 -6 12 -6 30 1
36 12 46 24 20 24 -10 0 -16 -4 -14 -8z"/>
<path d="M3248 233 c6 -2 18 -2 25 0 6 3 1 5 -13 5 -14 0 -19 -2 -12 -5z"/>
<path d="M4968 3953 c6 -2 18 -2 25 0 6 3 1 5 -13 5 -14 0 -19 -2 -12 -5z"/>
<path d="M4016 3925 c-3 -9 -6 -22 -5 -28 0 -7 5 -1 10 12 5 13 8 26 5 28 -2
2 -6 -3 -10 -12z"/>
<path d="M4933 1468 c-6 -7 -13 -21 -16 -30 -4 -10 -15 -18 -26 -18 -13 0 -20
-9 -23 -30 -3 -16 -1 -30 4 -30 4 0 8 5 8 10 0 6 7 10 15 10 8 0 19 9 25 20 6
11 18 20 26 20 10 0 14 6 10 15 -4 11 1 15 19 15 16 0 25 6 25 15 0 19 -53 21
-67 3z"/>
<path d="M4815 1341 c-6 -11 9 -23 19 -14 9 9 7 23 -3 23 -6 0 -12 -4 -16 -9z"/>
<path d="M4745 1296 c11 -8 24 -12 29 -8 5 3 1 9 -10 13 -31 12 -39 10 -19 -5z"/>
<path d="M4728 1273 c7 -3 16 -2 19 1 4 3 -2 6 -13 5 -11 0 -14 -3 -6 -6z"/>
<path d="M4625 1230 c-19 -8 -19 -9 3 -9 12 -1 22 4 22 9 0 6 -1 10 -2 9 -2 0
-12 -4 -23 -9z"/>
<path d="M486 1167 c3 -10 9 -15 12 -12 3 3 0 11 -7 18 -10 9 -11 8 -5 -6z"/>
<path d="M3765 430 c-3 -6 1 -7 9 -4 18 7 21 14 7 14 -6 0 -13 -4 -16 -10z"/>
<path d="M3400 160 c-41 -6 -38 -7 30 -9 41 -1 84 -3 95 -5 11 -2 14 -1 8 1
-7 3 -13 9 -13 14 0 10 -51 10 -120 -1z"/>
<path d="M3565 160 c-6 -10 130 -17 255 -12 40 1 49 -1 35 -8 -16 -7 -11 -9
23 -9 23 -1 42 4 42 9 0 6 47 10 120 10 73 0 120 4 120 10 0 15 -237 13 -242
-1 -3 -8 -10 -9 -23 -2 -27 14 -322 16 -330 3z"/>
<path d="M3898 113 c7 -3 16 -2 19 1 4 3 -2 6 -13 5 -11 0 -14 -3 -6 -6z"/>
<path d="M3848 103 c7 -3 16 -2 19 1 4 3 -2 6 -13 5 -11 0 -14 -3 -6 -6z"/>
<path d="M2975 70 c3 -5 12 -7 20 -3 21 7 19 13 -6 13 -11 0 -18 -4 -14 -10z"/>
</g>
</svg>
